<svg>
  <symbol id="icon-crop" viewBox="0 0 48 48">
    <path fill="none" d="M0 0h48v48H0V0z"/>
    <path d="M34 30h4V14a4 4 0 00-4-4H18v4h16v16zm-20 4V2h-4v8H2v4h8v20a4 4 0 004 4h20v8h4v-8h8v-4H14z"/>
  </symbol>
  <symbol id="icon-fill" viewBox="0 0 48 48">
    <path fill="none" d="M0 0h48v48H0V0z"/>
    <path d="M33.12 17.88L15.24 0l-2.83 2.83 4.76 4.76L6.88 17.88a3 3 0 000 4.24l11 11c.58.59 1.35.88 2.12.88s1.54-.29 2.12-.88l11-11a3 3 0 000-4.24zM10.41 20L20 10.42 29.59 20H10.41zM38 23s-4 4.33-4 7a4 4 0 108 0c0-2.67-4-7-4-7zM0 40h48v3H0z"/> 
  </symbol>
  <symbol id="icon-contrast" viewBox="-40 -20 48 48">
    <path d="M-19.46-3.96C-12.86-3.96-7.5 1.41-7.5 8s-5.37 11.96-11.96 11.96S-31.42 14.59-31.42 8s5.36-11.96 11.96-11.96m0-4a15.96 15.96 0 100 31.92 15.96 15.96 0 000-31.92z"/>
    <path d="M-19.46 16.33a8.52 8.52 0 100-17.04"/>
  </symbol>
  <symbol viewBox="0 0 75 25" id="logo-white-mobile">
    <g>
      <path d="M0 1.45C0 .75.58.16 1.26.16h7.18c5.08 0 8.43 2.7 8.43 7.15v.06c0 4.86-4.06 7.38-8.85 7.38H2.54v6.82c0 .7-.58 1.29-1.28 1.29-.68 0-1.26-.58-1.26-1.29V1.45zm8.11 10.98c3.74 0 6.19-2 6.19-4.96v-.06c0-3.23-2.42-4.9-6.06-4.9h-5.7v9.92h5.57zM21.73 1.29c0-.71.58-1.29 1.25-1.29.71 0 1.3.58 1.3 1.29v20.28c0 .7-.59 1.29-1.3 1.29-.67 0-1.25-.58-1.25-1.29V1.3zM30.87 1.32c0-.68.58-1.26 1.26-1.26h.35c.58 0 .93.3 1.29.74l13.68 17.45v-17C47.45.59 48 0 48.71 0c.67 0 1.22.58 1.22 1.26V21.6c0 .68-.48 1.2-1.16 1.2h-.13c-.54 0-.93-.33-1.32-.78L33.35 4.15V21.6c0 .68-.55 1.26-1.26 1.26-.67 0-1.22-.58-1.22-1.26V1.32zM56.3 1.29c0-.71.58-1.29 1.26-1.29.7 0 1.28.58 1.28 1.29v12.33L71.7.45c.29-.26.58-.45 1-.45.67 0 1.22.61 1.22 1.26 0 .35-.16.64-.42.9l-7.98 7.92 8.56 10.56c.23.29.36.54.36.93 0 .68-.58 1.29-1.29 1.29-.48 0-.8-.26-1.03-.58l-8.4-10.46-4.87 4.86v4.9c0 .7-.57 1.28-1.28 1.28-.68 0-1.26-.58-1.26-1.29V1.3z"/>
    </g>      
  </symbol>
  <symbol viewBox="0 0 147 41" id="logo-white-tablet">
    <g>
      <path d="M71.87 18.66c0-.7.58-1.29 1.26-1.29h7.18c5.09 0 8.44 2.7 8.44 7.15v.06c0 4.86-4.06 7.38-8.86 7.38h-5.47v6.82c0 .7-.58 1.29-1.3 1.29-.67 0-1.25-.58-1.25-1.29V18.66zM80 29.64c3.73 0 6.18-2 6.18-4.96v-.06c0-3.22-2.41-4.9-6.05-4.9h-5.7v9.92h5.57zM93.6 18.5c0-.7.58-1.29 1.26-1.29.7 0 1.29.58 1.29 1.29v20.28c0 .71-.58 1.29-1.3 1.29-.67 0-1.25-.58-1.25-1.29V18.5zM102.74 18.53c0-.67.58-1.25 1.26-1.25h.35c.58 0 .94.29 1.3.74l13.68 17.45v-17c0-.68.54-1.26 1.25-1.26.68 0 1.23.58 1.23 1.26v20.35c0 .67-.49 1.19-1.16 1.19h-.13c-.55 0-.94-.32-1.32-.78l-13.98-17.86v17.45c0 .67-.54 1.25-1.25 1.25-.68 0-1.22-.58-1.22-1.25V18.53zM128.17 18.5c0-.7.58-1.29 1.26-1.29.7 0 1.29.58 1.29 1.29v12.33l12.84-13.17c.3-.25.58-.45 1-.45.68 0 1.23.61 1.23 1.26 0 .35-.16.64-.42.9l-7.99 7.92 8.57 10.56c.22.3.35.55.35.94 0 .67-.58 1.28-1.28 1.28-.49 0-.81-.25-1.03-.58l-8.4-10.46-4.87 4.86v4.9c0 .7-.58 1.28-1.29 1.28-.67 0-1.25-.58-1.25-1.29V18.5z"/>
    </g>
    <path d="M60.46 28.02L55.3 6.65C54.93 4.3 52.69 0 46.69 0a1.5 1.5 0 100 3c4.85 0 5.57 3.73 5.64 4.14l4.76 19.7h-2.07c-.74-5.92-5.8-10.53-11.93-10.53s-11.18 4.6-11.92 10.53h-1.82c-.74-5.92-5.8-10.53-11.93-10.53S6.23 20.91 5.49 26.84H3.42l4.77-19.7C8.25 6.73 8.97 3 13.83 3a1.5 1.5 0 100-3c-6.01 0-8.24 4.3-8.6 6.65L.05 28.02c-.26 1.1.53 1.82 1.43 1.82H5.5c.74 5.93 5.8 10.54 11.92 10.54s11.19-4.6 11.93-10.53h1.81c.75 5.92 5.8 10.53 11.93 10.53s11.19-4.6 11.93-10.53h4.02c.9 0 1.69-.73 1.42-1.83zm-34.15 1.82a9.03 9.03 0 11-17.8-2.98 9.03 9.03 0 0117.8 2.98zm25.68 0a9.03 9.03 0 11-17.8-2.99 9.03 9.03 0 0117.8 3z"/>
  </symbol>
  <symbol viewBox="0 0 147 41" id="logo-white-desktop">
    <g>
      <path d="M71.87 18.66c0-.7.58-1.29 1.26-1.29h7.18c5.09 0 8.44 2.7 8.44 7.15v.06c0 4.86-4.06 7.38-8.86 7.38h-5.47v6.82c0 .7-.58 1.29-1.3 1.29-.67 0-1.25-.58-1.25-1.29V18.66zM80 29.64c3.73 0 6.18-2 6.18-4.96v-.06c0-3.22-2.41-4.9-6.05-4.9h-5.7v9.92h5.57zM93.6 18.5c0-.7.58-1.29 1.26-1.29.7 0 1.29.58 1.29 1.29v20.28c0 .71-.58 1.29-1.3 1.29-.67 0-1.25-.58-1.25-1.29V18.5zM102.74 18.53c0-.67.58-1.25 1.26-1.25h.35c.58 0 .94.29 1.3.74l13.68 17.45v-17c0-.68.54-1.26 1.25-1.26.68 0 1.23.58 1.23 1.26v20.35c0 .67-.49 1.19-1.16 1.19h-.13c-.55 0-.94-.32-1.32-.78l-13.98-17.86v17.45c0 .67-.54 1.25-1.25 1.25-.68 0-1.22-.58-1.22-1.25V18.53zM128.17 18.5c0-.7.58-1.29 1.26-1.29.7 0 1.29.58 1.29 1.29v12.33l12.84-13.17c.3-.25.58-.45 1-.45.68 0 1.23.61 1.23 1.26 0 .35-.16.64-.42.9l-7.99 7.92 8.57 10.56c.22.3.35.55.35.94 0 .67-.58 1.28-1.28 1.28-.49 0-.81-.25-1.03-.58l-8.4-10.46-4.87 4.86v4.9c0 .7-.58 1.28-1.29 1.28-.67 0-1.25-.58-1.25-1.29V18.5z"/>
    </g>
    <path fill="#D22856" d="M98.5 9.88c-2 0-3.62-1.63-3.62-3.63 0 2-1.63 3.62-3.63 3.62 2 0 3.63 1.63 3.63 3.63 0-2 1.62-3.63 3.62-3.63z"/>
    <g>
      <path d="M43.1 19.31c.24 0 .48.02.72.04a2.5 2.5 0 00-2.13-1.23 2 2 0 01-1.89-1.35c-.72.2-1.42.48-2.09.82.07.01.13.03.2.03a2 2 0 012 2c0 .1-.02.2-.03.29a9 9 0 013.21-.6z"/>
      <path d="M60.46 28.02L55.3 6.65C54.93 4.3 52.69 0 46.69 0a1.5 1.5 0 100 3c4.85 0 5.57 3.73 5.64 4.14l4.76 19.7h-2.07a12.04 12.04 0 00-5.3-8.52 2.5 2.5 0 00-1.53 2.3c0 .1-.02.18-.03.26a9.03 9.03 0 01-5.07 16.5 9.03 9.03 0 01-8.08-13.02 2 2 0 01-1.86-1.98.74.74 0 00-.19-.5 11.95 11.95 0 00-1.8 4.97h-1.81c-.74-5.93-5.8-10.53-11.93-10.53S6.23 20.92 5.49 26.84H3.42l4.77-19.7C8.25 6.73 8.97 3 13.83 3a1.5 1.5 0 100-3c-6.01 0-8.24 4.3-8.6 6.65L.05 28.02c-.26 1.1.53 1.82 1.43 1.82H5.5c.08.63.21 1.24.38 1.84.06-.1.1-.23.1-.36a2 2 0 012.48-1.93 8.34 8.34 0 01.06-2.55 9.03 9.03 0 113.51 8.74c-.35.3-.8.5-1.3.5a.75.75 0 00-.74.74c0 .29-.07.56-.18.81a11.94 11.94 0 007.61 2.74c6.13 0 11.19-4.6 11.93-10.52h1.82c.74 5.92 5.8 10.52 11.92 10.52s11.19-4.6 11.93-10.52h4.02c.9 0 1.69-.73 1.42-1.83z"/>
    </g>
    <path fill="#D22856" d="M50.69 16.13a4.5 4.5 0 01-4.5-4.5 4.5 4.5 0 01-4.5 4.5 4.5 4.5 0 014.5 4.5 4.5 4.5 0 014.5-4.5zM37.9 19.63a2.75 2.75 0 01-2.74-2.75 2.75 2.75 0 01-2.75 2.75 2.75 2.75 0 012.75 2.75 2.75 2.75 0 012.74-2.75zM10.73 34.07a2.75 2.75 0 01-2.75-2.75 2.75 2.75 0 01-2.74 2.75 2.75 2.75 0 012.74 2.75 2.75 2.75 0 012.75-2.75z"/>
  </symbol>
  <symbol id="logo-blue-mobile">
    <g>
      <path d="M71.87 18.66c0-.7.58-1.29 1.26-1.29h7.18c5.09 0 8.44 2.7 8.44 7.15v.06c0 4.86-4.06 7.38-8.86 7.38h-5.47v6.82c0 .7-.58 1.29-1.3 1.29-.67 0-1.25-.58-1.25-1.29V18.66zM80 29.64c3.73 0 6.18-2 6.18-4.96v-.06c0-3.22-2.41-4.9-6.05-4.9h-5.7v9.92h5.57zM93.6 18.5c0-.7.58-1.29 1.26-1.29.7 0 1.29.58 1.29 1.29v20.28c0 .71-.58 1.29-1.3 1.29-.67 0-1.25-.58-1.25-1.29V18.5zM102.74 18.53c0-.67.58-1.25 1.26-1.25h.35c.58 0 .94.29 1.3.74l13.68 17.45v-17c0-.68.54-1.26 1.25-1.26.68 0 1.23.58 1.23 1.26v20.35c0 .67-.48 1.19-1.16 1.19h-.13c-.55 0-.94-.32-1.32-.78l-13.97-17.86v17.45c0 .67-.55 1.25-1.26 1.25-.68 0-1.22-.58-1.22-1.25V18.53zM128.17 18.5c0-.7.58-1.29 1.26-1.29.7 0 1.29.58 1.29 1.29v12.33l12.84-13.16c.3-.26.58-.45 1-.45.68 0 1.23.61 1.23 1.26 0 .35-.16.64-.42.9l-7.99 7.92 8.57 10.56c.22.29.35.54.35.93 0 .68-.58 1.3-1.28 1.3-.49 0-.81-.27-1.03-.59l-8.4-10.46-4.87 4.86v4.9c0 .7-.58 1.28-1.28 1.28-.68 0-1.26-.58-1.26-1.29V18.5z"/>
    </g>
    <path fill="#D22856" d="M60.46 28.02L55.3 6.65C54.93 4.3 52.69 0 46.69 0a1.5 1.5 0 100 3c4.85 0 5.57 3.73 5.64 4.14l4.76 19.7h-2.07c-.74-5.92-5.8-10.53-11.93-10.53s-11.18 4.6-11.92 10.53h-1.82c-.74-5.92-5.8-10.53-11.93-10.53S6.23 20.91 5.49 26.84H3.42l4.77-19.7C8.25 6.73 8.97 3 13.83 3a1.5 1.5 0 100-3c-6.01 0-8.24 4.3-8.6 6.65L.05 28.02c-.26 1.1.53 1.82 1.43 1.82H5.5c.74 5.93 5.8 10.54 11.92 10.54s11.19-4.6 11.93-10.53h1.81c.75 5.92 5.8 10.53 11.93 10.53s11.19-4.6 11.93-10.53h4.02c.9 0 1.69-.73 1.42-1.83zm-34.15 1.82a9.03 9.03 0 11-17.8-2.98 9.03 9.03 0 0117.8 2.98zm25.68 0a9.03 9.03 0 11-17.8-2.99 9.03 9.03 0 0117.8 3z"/>
  </symbol>
  <symbol id="logo-blue-desktop">
    <g>
      <path d="M71.87 18.66c0-.7.58-1.29 1.26-1.29h7.18c5.09 0 8.44 2.7 8.44 7.15v.06c0 4.86-4.06 7.38-8.86 7.38h-5.47v6.82c0 .7-.58 1.29-1.3 1.29-.67 0-1.25-.58-1.25-1.29V18.66zM80 29.64c3.73 0 6.18-2 6.18-4.96v-.06c0-3.22-2.41-4.9-6.05-4.9h-5.7v9.92h5.57zM93.6 18.5c0-.7.58-1.29 1.26-1.29.7 0 1.29.58 1.29 1.29v20.28c0 .71-.58 1.29-1.3 1.29-.67 0-1.25-.58-1.25-1.29V18.5zM102.74 18.53c0-.67.58-1.25 1.26-1.25h.35c.58 0 .94.29 1.3.74l13.68 17.45v-17c0-.68.54-1.26 1.25-1.26.68 0 1.23.58 1.23 1.26v20.35c0 .67-.48 1.19-1.16 1.19h-.13c-.55 0-.94-.32-1.32-.78l-13.97-17.86v17.45c0 .67-.55 1.25-1.26 1.25-.68 0-1.22-.58-1.22-1.25V18.53zM128.17 18.5c0-.7.58-1.29 1.26-1.29.7 0 1.29.58 1.29 1.29v12.33l12.84-13.17c.3-.25.58-.45 1-.45.68 0 1.23.61 1.23 1.26 0 .35-.16.64-.42.9l-7.99 7.92 8.57 10.56c.22.3.35.55.35.94 0 .67-.58 1.28-1.28 1.28-.49 0-.81-.26-1.03-.58l-8.4-10.46-4.87 4.86v4.9c0 .7-.58 1.28-1.28 1.28-.68 0-1.26-.58-1.26-1.28V18.5z"/>
    </g>
    <path fill="#D22856" d="M98.5 9.88c-2 0-3.62-1.63-3.62-3.63 0 2-1.63 3.62-3.63 3.62 2 0 3.63 1.63 3.63 3.63 0-2 1.62-3.63 3.62-3.63z"/>
    <g fill="#D22856">
      <path d="M43.1 19.31c.24 0 .48.02.72.04a2.5 2.5 0 00-2.13-1.23 2 2 0 01-1.89-1.35c-.72.2-1.42.48-2.09.82.07.01.13.03.2.03a2 2 0 012 2c0 .1-.02.2-.03.29a9 9 0 013.21-.6z"/>
      <path d="M60.46 28.02L55.3 6.65C54.93 4.3 52.69 0 46.69 0a1.5 1.5 0 100 3c4.85 0 5.57 3.73 5.64 4.14l4.76 19.7h-2.07a12.04 12.04 0 00-5.3-8.52 2.5 2.5 0 00-1.53 2.3c0 .1-.02.18-.03.26a9.03 9.03 0 01-5.07 16.5 9.03 9.03 0 01-8.08-13.02 2 2 0 01-1.86-1.98.74.74 0 00-.19-.49 11.95 11.95 0 00-1.8 4.96h-1.81a12.03 12.03 0 00-23.85 0H3.41l4.77-19.7C8.25 6.72 8.97 3 13.83 3a1.5 1.5 0 100-3c-6.01 0-8.24 4.3-8.6 6.65L.05 28.02c-.26 1.1.53 1.82 1.43 1.82H5.5c.08.64.21 1.24.38 1.84.06-.1.1-.23.1-.36a2 2 0 012.48-1.93 8.34 8.34 0 01.06-2.55 9.03 9.03 0 113.51 8.74c-.35.3-.8.5-1.3.5a.75.75 0 00-.74.74c0 .29-.07.56-.18.81a11.94 11.94 0 007.61 2.74c6.13 0 11.19-4.6 11.93-10.52h1.82c.74 5.92 5.8 10.52 11.92 10.52s11.19-4.6 11.93-10.52H59l.04-.01c.9 0 1.69-.71 1.42-1.82z"/>
    </g>
    <path d="M50.69 16.13a4.5 4.5 0 01-4.5-4.5 4.5 4.5 0 01-4.5 4.5 4.5 4.5 0 014.5 4.5 4.5 4.5 0 014.5-4.5zM37.9 19.63a2.75 2.75 0 01-2.74-2.75 2.75 2.75 0 01-2.75 2.75 2.75 2.75 0 012.75 2.75 2.75 2.75 0 012.74-2.75zM10.73 34.07a2.75 2.75 0 01-2.75-2.75 2.75 2.75 0 01-2.74 2.75 2.75 2.75 0 012.74 2.75 2.75 2.75 0 012.75-2.75z"/>
  </symbol>

  <use xlink:href="#icon-crop"></use>
  <use xlink:href="#icon-fill"></use>
  <use xlink:href="#icon-contrast" x="100"></use>
  <use xlink:href="#logo-white-mobile"></use>
  <use xlink:href="#logo-white-tablet"></use>
  <use xlink:href="#logo-white-desktop"></use>
  <use xlink:href="#logo-white-desktop"></use>
  <use xlink:href="#logo-blue-mobile"></use>
  <use xlink:href="#logo-blue-desktop"></use> 
</svg>